<?xml version="1.0" encoding="UTF-8"?>
<svg width="24px" height="24px" viewBox="0 0 24 24" version="1.1" xmlns="http://www.w3.org/2000/svg" xmlns:xlink="http://www.w3.org/1999/xlink">
    <title>06F1DF1E-D03F-433C-8C84-B9AFC1083B3B</title>
    <defs>
        <path d="M10,3.5 C13.5898509,3.5 16.5,6.41014913 16.5,10 C16.5,11.6148687 15.9111063,13.092194 14.9363556,14.2289391 L20.3535534,19.6464466 L19.6464466,20.3535534 L14.2289391,14.9363556 C13.092194,15.9111063 11.6148687,16.5 10,16.5 C6.41014913,16.5 3.5,13.5898509 3.5,10 C3.5,6.41014913 6.41014913,3.5 10,3.5 Z M10,4.5 C6.96243388,4.5 4.5,6.96243388 4.5,10 C4.5,13.0375661 6.96243388,15.5 10,15.5 C13.0375661,15.5 15.5,13.0375661 15.5,10 C15.5,6.96243388 13.0375661,4.5 10,4.5 Z" id="path-1"></path>
    </defs>
    <g id="Symbols" stroke="none" stroke-width="1" fill="none" fill-rule="evenodd">
        <g id="Icon-/-24-/-search-inactive">
            <mask id="mask-2" fill="white">
                <use xlink:href="#path-1"></use>
            </mask>
            <use id="Icon" fill="#888888" xlink:href="#path-1"></use>
        </g>
    </g>
</svg>